<svg
  aria-hidden="true"
  style="position: absolute; width: 0; height: 0; overflow: hidden;"
  version="1.1"
  xmlns="http://www.w3.org/2000/svg"
  xmlns:xlink="http://www.w3.org/1999/xlink"
>
<defs>
<symbol id="icon-envelope" viewBox="0 0 32 32">
<path
        fill="#fff"
        style="fill: var(--color1, #fff)"
        opacity="0.4"
        d="M28.093 3.824h-24.18c-2.159 0-3.913 1.755-3.913 3.913v16.526c0 2.159 1.755 3.913 3.913 3.913h24.174c2.159 0 3.913-1.755 3.913-3.913v-16.52c0.007-2.159-1.748-3.92-3.907-3.92zM30.219 24.263c0 1.172-0.954 2.125-2.125 2.125h-24.18c-1.172 0-2.125-0.953-2.125-2.125v-16.52c0-1.172 0.953-2.125 2.125-2.125h24.174c1.172 0 2.125 0.953 2.125 2.125v16.52h0.007z"
      />
<path
        fill="#fff"
        style="fill: var(--color1, #fff)"
        opacity="0.4"
        d="M20.181 15.795l7.826-7.018c0.364-0.331 0.397-0.894 0.066-1.265-0.331-0.364-0.894-0.397-1.265-0.066l-10.792 9.687-2.105-1.88c-0.007-0.007-0.013-0.013-0.013-0.020-0.046-0.046-0.093-0.086-0.146-0.126l-8.568-7.667c-0.371-0.331-0.934-0.298-1.265 0.073s-0.298 0.934 0.073 1.265l7.919 7.078-7.886 7.383c-0.358 0.338-0.377 0.9-0.040 1.264 0.179 0.185 0.417 0.285 0.655 0.285 0.218 0 0.437-0.080 0.609-0.238l8.005-7.489 2.172 1.94c0.172 0.152 0.384 0.225 0.596 0.225s0.43-0.079 0.596-0.232l2.231-2 7.959 7.561c0.172 0.166 0.398 0.245 0.616 0.245 0.238 0 0.47-0.093 0.649-0.278 0.338-0.358 0.325-0.927-0.033-1.265l-7.859-7.462z"
      />
</symbol>
<symbol id="icon-facebookesvg" viewBox="0 0 32 32">
<path
        fill="#66c05d"
        style="fill: var(--color2, #66c05d)"
        d="M23.999 0.007l-4.15-0.007c-4.662 0-7.675 3.091-7.675 7.875v3.631h-4.172c-0.361 0-0.652 0.292-0.652 0.653v5.261c0 0.36 0.292 0.652 0.652 0.652h4.172v13.275c0 0.36 0.292 0.652 0.652 0.652h5.444c0.361 0 0.652-0.292 0.652-0.652v-13.275h4.878c0.361 0 0.652-0.292 0.652-0.652l0.002-5.261c0-0.173-0.069-0.339-0.191-0.461s-0.289-0.191-0.462-0.191h-4.88v-3.078c0-1.479 0.353-2.23 2.28-2.23l2.795-0.001c0.36 0 0.652-0.292 0.652-0.652v-4.885c0-0.36-0.292-0.652-0.652-0.652z"
      />
</symbol>
<symbol id="icon-instagramsvg" viewBox="0 0 32 32">
<path
        fill="#66c05d"
        style="fill: var(--color2, #66c05d)"
        d="M22 0h-12c-5.522 0-10 4.478-10 10v12c0 5.522 4.478 10 10 10h12c5.522 0 10-4.478 10-10v-12c0-5.522-4.478-10-10-10zM29 22c0 3.86-3.14 7-7 7h-12c-3.86 0-7-3.14-7-7v-12c0-3.86 3.14-7 7-7h12c3.86 0 7 3.14 7 7v12z"
      />
<path
        fill="#66c05d"
        style="fill: var(--color2, #66c05d)"
        d="M16 8c-4.418 0-8 3.582-8 8s3.582 8 8 8c4.418 0 8-3.582 8-8s-3.582-8-8-8zM16 21c-2.756 0-5-2.244-5-5 0-2.758 2.244-5 5-5s5 2.242 5 5c0 2.756-2.244 5-5 5z"
      />
<path
        fill="#66c05d"
        style="fill: var(--color2, #66c05d)"
        d="M24.6 8.466c0.589 0 1.066-0.477 1.066-1.066s-0.477-1.066-1.066-1.066c-0.589 0-1.066 0.477-1.066 1.066s0.477 1.066 1.066 1.066z"
      />
</symbol>
<symbol id="icon-logo" viewBox="0 0 32 32">
<path
        fill="#66c05d"
        style="fill: var(--color2, #66c05d)"
        d="M22.888 10.149l-4.213 4.213 1.631 1.631 4.213-4.213-1.631-1.631z"
      />
<path
        fill="#66c05d"
        style="fill: var(--color2, #66c05d)"
        d="M14.364 18.683l-4.213 4.213 1.631 1.631 4.213-4.213-1.631-1.631z"
      />
<path
        fill="#66c05d"
        style="fill: var(--color2, #66c05d)"
        d="M20.207 7.482l-4.213 4.213 1.631 1.631 4.213-4.213-1.631-1.631z"
      />
<path
        fill="#66c05d"
        style="fill: var(--color2, #66c05d)"
        d="M11.694 16.004l-4.213 4.213 1.631 1.631 4.213-4.213-1.631-1.631z"
      />
<path
        fill="#66c05d"
        style="fill: var(--color2, #66c05d)"
        d="M9.103 10.149l-1.631 1.631 4.213 4.213 1.631-1.631-4.213-4.213z"
      />
<path
        fill="#66c05d"
        style="fill: var(--color2, #66c05d)"
        d="M11.782 7.48l-1.631 1.631 4.213 4.213 1.631-1.631-4.213-4.213z"
      />
<path
        fill="#66c05d"
        style="fill: var(--color2, #66c05d)"
        d="M20.304 15.992l-1.631 1.631 4.213 4.213 1.631-1.631-4.213-4.213z"
      />
<path
        fill="#66c05d"
        style="fill: var(--color2, #66c05d)"
        d="M17.637 18.674l-1.631 1.631 4.213 4.213 1.631-1.631-4.213-4.213z"
      />
<path
        fill="#efefef"
        style="fill: var(--color3, #efefef)"
        d="M21.842 26.158l-1.627-1.627-4.216 4.216-4.216-4.216-1.627 1.627 5.842 5.842 5.842-5.842z"
      />
<path
        fill="#efefef"
        style="fill: var(--color3, #efefef)"
        d="M7.469 11.784l-1.627-1.627-5.842 5.842 5.842 5.842 1.627-1.627-4.216-4.216 4.216-4.216z"
      />
<path
        fill="#efefef"
        style="fill: var(--color3, #efefef)"
        d="M26.158 10.158l-1.627 1.627 4.216 4.216-4.216 4.216 1.627 1.627 5.842-5.842-5.842-5.842z"
      />
<path
        fill="#efefef"
        style="fill: var(--color3, #efefef)"
        d="M20.216 7.469l1.627-1.627-5.842-5.842-5.842 5.842 1.627 1.627 4.216-4.216 4.216 4.216z"
      />
</symbol>
<symbol id="icon-vksvg" viewBox="0 0 32 32">
<path
        fill="#66c05d"
        style="fill: var(--color2, #66c05d)"
        d="M30.78 22.672c-0.038-0.076-0.072-0.138-0.105-0.189-0.537-0.906-1.563-2.019-3.077-3.338l-0.032-0.030-0.016-0.015-0.016-0.015h-0.016c-0.687-0.614-1.123-1.027-1.305-1.239-0.333-0.403-0.408-0.811-0.226-1.224 0.129-0.312 0.612-0.971 1.45-1.978 0.441-0.534 0.789-0.962 1.047-1.284 1.858-2.316 2.664-3.796 2.417-4.441l-0.096-0.151c-0.065-0.091-0.231-0.174-0.499-0.249s-0.612-0.088-1.031-0.038l-4.64 0.030c-0.075-0.025-0.183-0.023-0.322 0.008s-0.21 0.045-0.21 0.045l-0.081 0.038-0.064 0.045c-0.054 0.030-0.113 0.083-0.177 0.158s-0.118 0.164-0.161 0.264c-0.505 1.218-1.080 2.351-1.724 3.398-0.397 0.624-0.762 1.166-1.096 1.624s-0.612 0.796-0.838 1.012c-0.226 0.217-0.429 0.39-0.612 0.521s-0.322 0.186-0.419 0.166c-0.097-0.020-0.188-0.040-0.274-0.060-0.15-0.091-0.271-0.214-0.362-0.37s-0.153-0.352-0.185-0.589c-0.032-0.237-0.051-0.441-0.056-0.612s-0.003-0.413 0.008-0.725c0.011-0.312 0.016-0.524 0.016-0.634 0-0.383 0.008-0.798 0.024-1.246s0.029-0.803 0.040-1.065c0.011-0.262 0.016-0.539 0.016-0.831s-0.019-0.521-0.056-0.687c-0.037-0.166-0.094-0.327-0.169-0.483s-0.186-0.277-0.33-0.363c-0.145-0.086-0.325-0.154-0.54-0.204-0.569-0.121-1.294-0.186-2.175-0.196-1.998-0.020-3.281 0.101-3.851 0.363-0.226 0.111-0.43 0.262-0.612 0.453-0.193 0.222-0.22 0.343-0.081 0.362 0.645 0.091 1.101 0.307 1.369 0.649l0.097 0.181c0.075 0.131 0.15 0.363 0.226 0.695s0.124 0.7 0.145 1.102c0.054 0.735 0.054 1.365 0 1.888s-0.104 0.931-0.153 1.223c-0.049 0.292-0.121 0.529-0.218 0.71s-0.161 0.292-0.193 0.332-0.059 0.066-0.080 0.075c-0.14 0.050-0.285 0.076-0.435 0.076s-0.333-0.071-0.548-0.212c-0.215-0.141-0.438-0.335-0.669-0.582s-0.491-0.592-0.782-1.035c-0.29-0.443-0.591-0.967-0.902-1.571l-0.258-0.438c-0.161-0.282-0.381-0.692-0.66-1.231s-0.526-1.060-0.741-1.564c-0.086-0.211-0.215-0.372-0.387-0.483l-0.081-0.045c-0.054-0.040-0.14-0.083-0.258-0.128s-0.242-0.078-0.371-0.098l-4.415 0.030c-0.451 0-0.757 0.096-0.918 0.287l-0.065 0.091c-0.032 0.050-0.048 0.131-0.048 0.242s0.032 0.247 0.097 0.408c0.644 1.42 1.345 2.789 2.102 4.108s1.415 2.382 1.974 3.187c0.559 0.806 1.128 1.566 1.708 2.281s0.964 1.173 1.152 1.374c0.188 0.202 0.336 0.352 0.443 0.453l0.403 0.362c0.258 0.242 0.636 0.531 1.136 0.869s1.053 0.67 1.66 0.997c0.607 0.327 1.313 0.594 2.119 0.8s1.59 0.29 2.352 0.25h1.853c0.376-0.030 0.66-0.141 0.854-0.332l0.064-0.076c0.043-0.060 0.083-0.154 0.121-0.279s0.056-0.265 0.056-0.415c-0.011-0.433 0.024-0.823 0.105-1.17s0.172-0.609 0.274-0.785c0.102-0.176 0.218-0.325 0.346-0.445s0.221-0.194 0.274-0.219c0.053-0.025 0.096-0.042 0.128-0.053 0.258-0.080 0.561-0.003 0.911 0.234s0.677 0.529 0.983 0.876c0.306 0.348 0.674 0.738 1.104 1.171s0.806 0.755 1.128 0.967l0.322 0.181c0.215 0.121 0.494 0.232 0.838 0.332s0.644 0.126 0.902 0.075l4.124-0.060c0.408 0 0.725-0.063 0.951-0.189s0.36-0.265 0.403-0.415c0.043-0.151 0.045-0.322 0.008-0.514s-0.076-0.325-0.113-0.4z"
      />
</symbol>
<symbol id="icon-youtobesvg" viewBox="0 0 32 32">
<path
        fill="#66c05d"
        style="fill: var(--color2, #66c05d)"
        d="M25.354 5.091h-18.708c-3.671 0-6.646 2.867-6.646 6.404v9.011c0 3.537 2.975 6.404 6.646 6.404h18.708c3.67 0 6.646-2.867 6.646-6.404v-9.011c0-3.537-2.976-6.404-6.646-6.404zM20.859 16.438l-8.75 4.021c-0.233 0.107-0.502-0.057-0.502-0.306v-8.294c0-0.252 0.276-0.416 0.51-0.302l8.75 4.273c0.26 0.127 0.256 0.487-0.008 0.607z"
      />
</symbol>
<symbol id="icon-vksvg1" viewBox="0 0 62 32">
<path
        fill="#66c05d"
        style="fill: var(--color2, #66c05d)"
        d="M59.509 28.899c-0.073-0.146-0.14-0.268-0.203-0.365-1.038-1.753-3.022-3.904-5.949-6.454l-0.062-0.058-0.031-0.029-0.031-0.029h-0.031c-1.329-1.188-2.17-1.986-2.523-2.395-0.645-0.779-0.789-1.567-0.437-2.366 0.249-0.603 1.184-1.878 2.803-3.825 0.852-1.032 1.526-1.859 2.024-2.482 3.593-4.478 5.151-7.339 4.673-8.585l-0.186-0.291c-0.125-0.175-0.447-0.336-0.965-0.482-0.52-0.146-1.184-0.17-1.994-0.073l-8.971 0.058c-0.145-0.048-0.353-0.044-0.623 0.015s-0.405 0.088-0.405 0.088l-0.156 0.073-0.124 0.088c-0.104 0.058-0.218 0.16-0.343 0.306s-0.228 0.316-0.311 0.511c-0.977 2.356-2.087 4.546-3.333 6.57-0.768 1.207-1.474 2.253-2.119 3.139s-1.184 1.538-1.619 1.956c-0.436 0.419-0.83 0.754-1.184 1.007s-0.623 0.361-0.809 0.321c-0.187-0.039-0.363-0.078-0.53-0.117-0.291-0.175-0.524-0.414-0.7-0.715s-0.296-0.681-0.358-1.139c-0.062-0.458-0.099-0.852-0.109-1.183-0.010-0.331-0.005-0.798 0.016-1.402s0.031-1.012 0.031-1.226c0-0.74 0.015-1.543 0.046-2.409s0.057-1.553 0.078-2.058c0.021-0.506 0.031-1.042 0.031-1.606s-0.037-1.007-0.109-1.329c-0.071-0.321-0.181-0.633-0.326-0.935s-0.359-0.535-0.639-0.701c-0.28-0.165-0.629-0.297-1.043-0.394-1.101-0.234-2.502-0.36-4.205-0.379-3.862-0.039-6.344 0.195-7.445 0.701-0.436 0.214-0.831 0.506-1.183 0.876-0.374 0.428-0.426 0.662-0.156 0.701 1.246 0.175 2.128 0.594 2.648 1.256l0.187 0.351c0.145 0.253 0.291 0.701 0.436 1.343s0.239 1.353 0.28 2.131c0.104 1.421 0.104 2.638 0 3.65s-0.202 1.801-0.296 2.365c-0.094 0.565-0.234 1.022-0.421 1.372s-0.312 0.565-0.374 0.642-0.114 0.127-0.156 0.146c-0.27 0.097-0.551 0.146-0.841 0.146s-0.644-0.136-1.059-0.409c-0.415-0.273-0.846-0.647-1.293-1.124s-0.95-1.144-1.511-2c-0.56-0.857-1.142-1.869-1.744-3.037l-0.498-0.847c-0.312-0.545-0.737-1.338-1.277-2.38s-1.018-2.049-1.433-3.023c-0.166-0.409-0.415-0.72-0.747-0.934l-0.156-0.088c-0.104-0.078-0.27-0.16-0.498-0.248s-0.467-0.151-0.716-0.19l-8.535 0.058c-0.872 0-1.464 0.185-1.776 0.555l-0.125 0.175c-0.062 0.097-0.094 0.253-0.094 0.467s0.062 0.477 0.187 0.788c1.246 2.745 2.601 5.393 4.065 7.943s2.736 4.605 3.816 6.161c1.080 1.558 2.18 3.028 3.302 4.41s1.864 2.268 2.227 2.657c0.364 0.39 0.649 0.681 0.857 0.876l0.779 0.701c0.498 0.467 1.23 1.027 2.196 1.679s2.035 1.295 3.208 1.928c1.173 0.632 2.539 1.148 4.096 1.547s3.073 0.56 4.548 0.482h3.582c0.726-0.059 1.277-0.273 1.651-0.643l0.124-0.146c0.083-0.116 0.161-0.297 0.233-0.54s0.109-0.511 0.109-0.803c-0.021-0.837 0.047-1.591 0.202-2.263s0.332-1.178 0.53-1.518c0.198-0.34 0.421-0.628 0.669-0.861s0.426-0.375 0.531-0.424c0.103-0.049 0.186-0.082 0.248-0.102 0.499-0.156 1.085-0.005 1.761 0.453s1.308 1.022 1.9 1.694c0.592 0.672 1.303 1.426 2.134 2.263s1.558 1.46 2.18 1.869l0.623 0.351c0.416 0.234 0.956 0.448 1.62 0.643 0.663 0.195 1.245 0.243 1.744 0.146l7.974-0.116c0.789 0 1.402-0.122 1.838-0.365s0.695-0.511 0.779-0.803c0.083-0.292 0.088-0.623 0.016-0.994-0.074-0.369-0.147-0.627-0.219-0.774z"
      />
</symbol>
<symbol id="icon-facebookesvg1" viewBox="0 0 19 32">
<path
        fill="#66c05d"
        style="fill: var(--color2, #66c05d)"
        d="M17.599 0.007l-4.15-0.007c-4.662 0-7.675 3.091-7.675 7.875v3.631h-4.172c-0.361 0-0.652 0.292-0.652 0.653v5.261c0 0.36 0.292 0.652 0.652 0.652h4.172v13.275c0 0.36 0.292 0.652 0.652 0.652h5.444c0.361 0 0.652-0.292 0.652-0.652v-13.275h4.878c0.361 0 0.652-0.292 0.652-0.652l0.002-5.261c0-0.173-0.069-0.339-0.191-0.461s-0.289-0.191-0.462-0.191h-4.88v-3.078c0-1.479 0.353-2.23 2.28-2.23l2.795-0.001c0.36 0 0.652-0.292 0.652-0.652v-4.885c0-0.36-0.292-0.652-0.652-0.652z"
      />
</symbol>
<symbol id="icon-autosvg" viewBox="0 0 98 32">
<path
        fill="#fff"
        style="fill: var(--color1, #fff)"
        opacity="0.4"
        d="M20.567 23.608c-3.778 0-6.716 1.784-6.716 4.079s2.938 4.079 6.716 4.079 6.716-1.784 6.716-4.079c0-2.294-2.938-4.079-6.716-4.079zM60.442 0.411h-3.358v4.971h12.593l-9.235-4.971zM0.42 28.452h8.395c0 0 0.42-7.648 12.592-7.648 9.024 0 10.493 7.648 10.493 7.648h20.987v-28.041h-52.887l0.42 28.041zM79.75 23.608c-3.778 0-6.715 1.784-6.715 4.079s2.938 4.079 6.715 4.079c3.778 0 6.716-1.784 6.716-4.079s-3.148-4.079-6.716-4.079zM71.775 6.784h-14.691v21.668h12.593c0 0-1.679-6.373 10.493-6.373 9.234 0 9.024 6.373 9.024 6.373h7.766l0.42-9.559-25.604-12.109zM69.677 23.353h-8.395v-2.549h8.395v2.549zM68.837 18.765l-8.395-3.059v-7.138h8.395l21.827 10.197h-21.827z"
      />
</symbol>
<symbol id="icon-facebook" viewBox="0 0 32 32">
<path
        fill="#afb1b8"
        style="fill: var(--color4, #afb1b8)"
        d="M21.329 5.313h2.921v-5.088c-0.504-0.069-2.237-0.225-4.256-0.225-4.212 0-7.097 2.649-7.097 7.519v4.481h-4.648v5.688h4.648v14.312h5.699v-14.311h4.46l0.708-5.688h-5.169v-3.919c0.001-1.644 0.444-2.769 2.735-2.769z"
      />
</symbol>
<symbol id="icon-instagram" viewBox="0 0 32 32">
<path
        fill="#afb1b8"
        style="fill: var(--color4, #afb1b8)"
        d="M31.969 9.408c-0.075-1.7-0.35-2.869-0.744-3.882-0.406-1.075-1.031-2.038-1.85-2.838-0.8-0.813-1.769-1.444-2.832-1.844-1.019-0.394-2.182-0.669-3.882-0.744-1.713-0.081-2.257-0.1-6.601-0.1s-4.888 0.019-6.595 0.094c-1.7 0.075-2.869 0.35-3.882 0.744-1.075 0.406-2.038 1.031-2.838 1.85-0.813 0.8-1.444 1.769-1.844 2.832-0.394 1.019-0.669 2.182-0.744 3.882-0.081 1.713-0.1 2.257-0.1 6.601s0.019 4.888 0.094 6.595c0.075 1.7 0.35 2.869 0.744 3.882 0.406 1.075 1.038 2.038 1.85 2.838 0.8 0.813 1.769 1.444 2.832 1.844 1.019 0.394 2.182 0.669 3.882 0.744 1.706 0.075 2.25 0.094 6.595 0.094s4.888-0.019 6.595-0.094c1.7-0.075 2.869-0.35 3.882-0.744 2.151-0.832 3.851-2.532 4.682-4.682 0.394-1.019 0.669-2.182 0.744-3.882 0.075-1.707 0.094-2.251 0.094-6.595s-0.006-4.888-0.081-6.595zM29.087 22.473c-0.069 1.563-0.331 2.407-0.55 2.969-0.538 1.394-1.644 2.5-3.038 3.038-0.563 0.219-1.413 0.481-2.969 0.55-1.688 0.075-2.194 0.094-6.464 0.094s-4.782-0.019-6.464-0.094c-1.563-0.069-2.407-0.331-2.969-0.55-0.694-0.256-1.325-0.663-1.838-1.194-0.531-0.519-0.938-1.144-1.194-1.838-0.219-0.563-0.481-1.413-0.55-2.969-0.075-1.688-0.094-2.194-0.094-6.464s0.019-4.782 0.094-6.464c0.069-1.563 0.331-2.407 0.55-2.969 0.256-0.694 0.663-1.325 1.2-1.838 0.519-0.531 1.144-0.938 1.838-1.194 0.563-0.219 1.413-0.481 2.969-0.55 1.688-0.075 2.194-0.094 6.464-0.094 4.276 0 4.782 0.019 6.464 0.094 1.563 0.069 2.407 0.331 2.969 0.55 0.694 0.256 1.325 0.662 1.838 1.194 0.531 0.519 0.938 1.144 1.194 1.838 0.219 0.563 0.481 1.413 0.55 2.969 0.075 1.688 0.094 2.194 0.094 6.464s-0.019 4.77-0.094 6.458z"
      />
<path
        fill="#afb1b8"
        style="fill: var(--color4, #afb1b8)"
        d="M16.059 7.783c-4.538 0-8.22 3.682-8.22 8.22s3.682 8.22 8.22 8.22c4.538 0 8.22-3.682 8.22-8.22s-3.682-8.22-8.22-8.22zM16.059 21.335c-2.944 0-5.332-2.388-5.332-5.332s2.388-5.332 5.332-5.332c2.944 0 5.332 2.388 5.332 5.332s-2.388 5.332-5.332 5.332z"
      />
<path
        fill="#afb1b8"
        style="fill: var(--color4, #afb1b8)"
        d="M26.524 7.458c0 1.060-0.859 1.919-1.919 1.919s-1.919-0.859-1.919-1.919c0-1.060 0.859-1.919 1.919-1.919s1.919 0.859 1.919 1.919z"
      />
</symbol>
</defs>
</svg>
